<?xml version="1.0" encoding="UTF-8" standalone="no"?>
<!DOCTYPE svg PUBLIC "-//W3C//DTD SVG 1.1//EN" "http://www.w3.org/Graphics/SVG/1.1/DTD/svg11.dtd">
<svg width="100%" height="100%" viewBox="0 0 262 210" version="1.1" xmlns="http://www.w3.org/2000/svg" xmlns:xlink="http://www.w3.org/1999/xlink" xml:space="preserve" xmlns:serif="http://www.serif.com/" style="fill-rule:evenodd;clip-rule:evenodd;stroke-miterlimit:10;">
    <g transform="matrix(1,0,0,1,-491.005,-35.3358)">
        <g>
            <g transform="matrix(1,0,0,1,511.105,224.971)">
                <path d="M0,0L221.729,0" style="fill:none;fill-rule:nonzero;stroke:rgb(232,77,15);stroke-width:4px;"/>
            </g>
            <g transform="matrix(-1,0,0,1,1115.48,149.214)">
                <rect x="532.376" y="25.029" width="50.728" height="50.728" style="fill:none;stroke:rgb(232,77,15);stroke-width:4px;"/>
            </g>
            <g transform="matrix(-1,0,0,1,1115.48,73.26)">
                <rect x="549.048" y="75.756" width="17.387" height="25.228" style="fill:none;stroke:rgb(232,77,15);stroke-width:4px;"/>
            </g>
            <g transform="matrix(0,-1,-1,0,661.514,221.357)">
                <path d="M-3.614,3.614L3.614,3.614" style="fill:none;fill-rule:nonzero;stroke:rgb(232,77,15);stroke-width:4px;"/>
            </g>
            <g transform="matrix(0,-1,-1,0,719.606,221.357)">
                <path d="M-3.614,3.614L3.614,3.614" style="fill:none;fill-rule:nonzero;stroke:rgb(232,77,15);stroke-width:4px;"/>
            </g>
            <g transform="matrix(-1,0,0,1,1372.05,158.895)">
                <rect x="651.559" y="32.257" width="68.933" height="26.591" style="fill:none;stroke:rgb(232,77,15);stroke-width:4px;"/>
            </g>
            <g transform="matrix(-1,0,0,1,1371.3,58.669)">
                <rect x="662.64" y="58.847" width="46.022" height="73.637" style="fill:none;stroke:rgb(232,77,15);stroke-width:4px;"/>
            </g>
            <g transform="matrix(1,0,0,1,703.344,60.6516)">
                <path d="M0,56.864L-62.08,-5.216L-85.091,17.796L-40.807,62.08" style="fill:none;fill-rule:nonzero;stroke:rgb(232,77,15);stroke-width:4px;"/>
            </g>
            <g transform="matrix(1,0,0,1,639.525,82.9473)">
                <path d="M0,-25.773L-97.33,-25.773L-97.33,0L-16.222,0" style="fill:none;fill-rule:nonzero;stroke:rgb(232,77,15);stroke-width:4px;"/>
            </g>
            <g transform="matrix(-1,0,0,1,1115.48,-65.356)">
                <rect x="551.4" y="148.303" width="12.682" height="18.75" style="fill:none;stroke:rgb(232,77,15);stroke-width:4px;"/>
            </g>
            <g transform="matrix(0,1,1,0,564.696,108.652)">
                <path d="M-6.955,-6.955L6.955,-6.955" style="fill:none;fill-rule:nonzero;stroke:rgb(232,77,15);stroke-width:4px;"/>
            </g>
            <g transform="matrix(1,0,0,1,685.65,161.825)">
                <path d="M0,3.835C-1.055,3.835 -1.917,2.973 -1.917,1.918C-1.917,0.863 -1.055,0 0,0C1.055,0 1.918,0.863 1.918,1.918C1.918,2.973 1.055,3.835 0,3.835Z" style="fill:none;fill-rule:nonzero;stroke:rgb(232,77,15);stroke-width:4px;"/>
            </g>
            <g transform="matrix(-0.85065,-0.525732,-0.525732,0.85065,641.963,115.94)">
                <path d="M-62.294,17.697L5.027,17.696" style="fill:none;fill-rule:nonzero;stroke:rgb(232,77,15);stroke-width:4px;"/>
            </g>
            <g transform="matrix(0,1,1,0,627.832,126.552)">
                <path d="M1.457,-1.458C2.262,-1.458 2.915,-0.806 2.915,-0.001C2.915,0.805 2.262,1.457 1.457,1.457C0.652,1.457 0,0.805 0,-0.001C0,-0.806 0.652,-1.458 1.457,-1.458" style="fill-rule:nonzero;stroke:rgb(232,77,15);stroke-width:4px;stroke-linejoin:round;stroke-miterlimit:2;"/>
            </g>
            <g transform="matrix(0,1,1,0,627.832,126.552)">
                <circle cx="1.458" cy="-0" r="1.458" style="fill:none;stroke:rgb(232,77,15);stroke-width:4px;"/>
            </g>
            <g transform="matrix(1,0,0,1,551.4,70.0605)">
                <path d="M0,0L39.46,0" style="fill:none;fill-rule:nonzero;stroke:rgb(232,77,15);stroke-width:4px;"/>
            </g>
            <g transform="matrix(0,1,1,0,552.286,210.516)">
                <path d="M-14.455,-14.455L14.455,-14.455" style="fill:none;fill-rule:nonzero;stroke:rgb(232,77,15);stroke-width:4px;"/>
            </g>
            <g transform="matrix(-1,0,0,1,1372.15,152.862)">
                <rect x="657.9" y="43.813" width="56.353" height="9.512" style="fill:none;stroke:rgb(232,77,15);stroke-width:4px;"/>
            </g>
            <g transform="matrix(0.707107,0.707107,0.707107,-0.707107,649.62,70.4335)">
                <path d="M-4.884,-11.792L28.468,-11.792" style="fill:none;fill-rule:nonzero;stroke:rgb(232,77,15);stroke-width:4px;"/>
            </g>
            <g transform="matrix(-1,0,0,1,1370.75,60.849)">
                <rect x="675.423" y="69.894" width="19.909" height="49.363" style="fill:none;stroke:rgb(232,77,15);stroke-width:4px;"/>
            </g>
        </g>
    </g>
</svg>
