<svg xmlns="http://www.w3.org/2000/svg" viewBox="0 0 221.73 173.73"><defs><style>.cls-1,.cls-2,.cls-3,.cls-4{fill:none;}.cls-1,.cls-2,.cls-3,.cls-4,.cls-5{stroke:#000;stroke-miterlimit:10;}.cls-1{stroke-width:3.48px;}.cls-2{stroke-width:2.32px;}.cls-3{stroke-width:5.8px;}.cls-4,.cls-5{stroke-width:4.64px;}</style></defs><g id="Layer_2" data-name="Layer 2"><g id="célgépgy"><line class="cls-1" y1="171.99" x2="221.73" y2="171.99"/><rect class="cls-1" x="21.27" y="121.27" width="50.73" height="50.73"/><rect class="cls-2" x="37.94" y="96.04" width="17.39" height="25.23"/><line class="cls-2" x1="146.8" y1="171.99" x2="146.8" y2="164.77"/><line class="cls-2" x1="204.89" y1="171.99" x2="204.89" y2="164.77"/><rect class="cls-1" x="140.46" y="138.18" width="68.93" height="26.59"/><rect class="cls-1" x="151.53" y="64.54" width="46.02" height="73.64"/><polyline class="cls-1" points="192.24 64.54 130.16 2.46 107.15 25.47 151.43 69.75"/><polyline class="cls-1" points="128.42 4.2 31.09 4.2 31.09 29.97 112.2 29.97"/><rect class="cls-1" x="40.3" y="29.97" width="12.68" height="18.75"/><line class="cls-2" x1="46.64" y1="48.72" x2="46.64" y2="62.63"/><rect class="cls-3" x="172.63" y="108.85" width="3.84" height="3.84" rx="1.92"/><line class="cls-4" x1="174.55" y1="110.77" x2="117.28" y2="75.37"/><circle class="cls-5" cx="116.73" cy="75.03" r="1.46"/><line class="cls-2" x1="40.3" y1="17.08" x2="79.76" y2="17.08"/><line class="cls-2" x1="26.73" y1="143.08" x2="26.73" y2="171.99"/><rect class="cls-2" x="146.8" y="143.7" width="56.35" height="9.51"/><line class="cls-2" x1="126.72" y1="22.34" x2="150.31" y2="45.92"/><rect class="cls-2" x="164.32" y="77.77" width="19.91" height="49.36"/></g></g></svg>