<svg xmlns="http://www.w3.org/2000/svg" viewBox="0 0 474.34 202.87"><defs><style>.cls-1,.cls-2,.cls-3,.cls-4{fill:none;stroke:#fff;stroke-miterlimit:10;}.cls-1{stroke-width:3.5px;}.cls-2{stroke-width:2.93px;}.cls-3{stroke-width:1.44px;}.cls-4{stroke-width:2.16px;}.cls-5{fill:#fff;}</style></defs><g id="Layer_2" data-name="Layer 2"><g id="logo"><polyline class="cls-1" points="354.49 110.53 344.99 122.17 344.99 201.12 354.88 201.12"/><polygon class="cls-1" points="434.63 145.72 367.06 201.12 354.88 201.12 354.88 111.02 470.26 99.52 440.78 134.92 434.63 134.92 434.63 145.72"/><polyline class="cls-1" points="467.92 99.88 419.67 104.92 406.43 121.43 417.99 135.4"/><path class="cls-2" d="M420.08,134.42l-29.69,33c-53.77,18.77-19.92-23.81-19.92-23.81l38.32-22.85Z"/><circle class="cls-3" cx="430.34" cy="118.92" r="9.08"/><circle class="cls-4" cx="430.34" cy="118.92" r="4.54"/><circle class="cls-4" cx="379.66" cy="155.58" r="9.08"/><circle class="cls-4" cx="379.66" cy="155.58" r="4.54"/><path class="cls-5" d="M114.84,175.26V148.71h10.64v2.84h-7.55v9.84h6.56v2.84h-6.56v11Z"/><path class="cls-5" d="M129.69,175.26V148.71h10.64v2.88h-7.55v9.69h6.57v2.85h-6.57v8.28h7.52v2.85Zm5.94-28.38h-3.48l2-4h3.51Z"/><path class="cls-5" d="M158.77,148.74v26.52h-3.12V156.72c-.4,1-.82,2-1.25,3.05s-.86,2-1.28,3.09h-2.67c-.45-1.05-.88-2.08-1.3-3.09s-.86-2-1.3-3.05v18.54h-3.09V148.74h2.88q1,2.46,2.05,4.92t2.09,4.92q1-2.46,2.06-4.92c.69-1.64,1.38-3.28,2.09-4.92Z"/><path class="cls-5" d="M174.68,148.71v2.88h-4.42v23.67H167.2V151.59h-4.43v-2.88Z"/><path class="cls-5" d="M178.79,175.26V148.71h10.64v2.88h-7.55v9.69h6.57v2.85h-6.57v8.28h7.52v2.85Z"/><path class="cls-5" d="M206.08,154.75h-3v-2a1.44,1.44,0,0,0-.44-.85,1.23,1.23,0,0,0-.86-.35h-3.48a1.24,1.24,0,0,0-.93.39,1.35,1.35,0,0,0-.37.95v18.19a1.36,1.36,0,0,0,.37.95,1.23,1.23,0,0,0,.93.38h3.48a1.19,1.19,0,0,0,.86-.35,1.38,1.38,0,0,0,.44-.84v-2h3v1.9a4.38,4.38,0,0,1-1.32,2.91,4.73,4.73,0,0,1-1.33.9,4.07,4.07,0,0,1-1.64.33h-3.61a4.26,4.26,0,0,1-3-1.25,4.37,4.37,0,0,1-1.25-3V153a4.16,4.16,0,0,1,.34-1.67,4.24,4.24,0,0,1,2.28-2.28,4.25,4.25,0,0,1,1.67-.33h3.61a4.07,4.07,0,0,1,1.64.33,4.34,4.34,0,0,1,1.33.9,4.33,4.33,0,0,1,1.32,2.91Z"/><path class="cls-5" d="M210.57,148.71h3.09v12.92h6.05V148.71h3v26.55h-3V164.48h-6.05v10.78h-3.09Z"/><path class="cls-5" d="M230.49,156.93v18.33H227.4V148.71h3.09L237.55,167V148.71h3v26.55h-3.09Z"/><path class="cls-5" d="M252.4,148.71v2.84h-2.1v20.86h2.1v2.85h-7.27v-2.85h2.07V151.55h-2.07v-2.84Z"/><path class="cls-5" d="M263.55,159.23a2.45,2.45,0,0,0,.23-.62q.6-2.49,1.16-5t1.16-4.92h3q-.66,2.85-1.33,5.71t-1.37,5.71a1,1,0,0,1-.16.42,4.67,4.67,0,0,0-.26.56l.26.53a1.15,1.15,0,0,1,.16.45q.81,3.3,1.56,6.57t1.57,6.57h-3.06q-.66-2.85-1.32-5.62T263.85,164a4.31,4.31,0,0,0-.63-1.44h-3.3v12.68h-3.09V148.74h3.09v11h3.3A1.77,1.77,0,0,0,263.55,159.23Z"/><path class="cls-5" d="M276.67,166.93v8.33h-3.09V153a4,4,0,0,1,.33-1.58,4.61,4.61,0,0,1,.93-1.37,5.09,5.09,0,0,1,1.37-1,4,4,0,0,1,1.69-.37h3.62a4.16,4.16,0,0,1,1.67.34,4.26,4.26,0,0,1,1.37.91,4.3,4.3,0,0,1,1.24,3v22.23h-3.09v-8.33Zm6-2.84V152.92a1.3,1.3,0,0,0-1.33-1.33H278a1.31,1.31,0,0,0-1.33,1.33v11.17Z"/><polygon class="cls-5" points="70.38 109.78 70.38 0 119.76 0 119.76 19.91 91.09 19.91 91.09 47.73 116.02 47.73 116.02 67.51 91.09 67.51 91.09 90 119.62 90 119.62 109.78 70.38 109.78"/><path class="cls-5" d="M74.87,105.29V4.49h40.4V15.42H86.6v36.8h24.94V63H86.6V94.49h28.54v10.8Z"/><polygon class="cls-5" points="134.25 109.78 134.25 0 183.62 0 183.62 19.77 154.96 19.77 154.96 48.13 179.89 48.13 179.89 67.91 154.96 67.91 154.96 109.78 134.25 109.78"/><path class="cls-5" d="M138.74,105.29V4.49h40.4v10.8H150.47V52.62H175.4v10.8H150.47v41.87Z"/><path class="cls-5" d="M218.07,109.77a20.56,20.56,0,0,1-8.18-1.63,21.59,21.59,0,0,1-6.55-4.37,20.3,20.3,0,0,1-4.54-6.67A20.71,20.71,0,0,1,197.18,89V20.89a20.71,20.71,0,0,1,1.62-8.08,20.22,20.22,0,0,1,4.55-6.68,21.83,21.83,0,0,1,6.54-4.36A20.4,20.4,0,0,1,218.07.13H231.8a20.7,20.7,0,0,1,20.76,20.76V89a20.86,20.86,0,0,1-6.05,14.71,20.91,20.91,0,0,1-14.71,6Zm.4-89.86c-.28,0-.32,0-.43.15s-.15.15-.15.43V89.42c0,.28,0,.32.15.43s.15.15.43.15h12.8c.28,0,.32,0,.43-.15a.47.47,0,0,0,.15-.43V20.49c0-.28,0-.33-.16-.43s-.14-.15-.42-.15Z"/><path class="cls-5" d="M248.07,89a16.22,16.22,0,0,1-16.27,16.27H218.07a15.86,15.86,0,0,1-6.4-1.27,17,17,0,0,1-5.2-3.47,15.51,15.51,0,0,1-3.53-5.2A16,16,0,0,1,201.67,89V20.89a16.06,16.06,0,0,1,1.27-6.34,15.61,15.61,0,0,1,3.53-5.2,17.13,17.13,0,0,1,5.2-3.46,15.86,15.86,0,0,1,6.4-1.27H231.8a16.22,16.22,0,0,1,16.27,16.27Zm-34.67.4a5,5,0,0,0,5.07,5.07h12.8a5,5,0,0,0,5.07-5.07V20.49a5,5,0,0,0-5.07-5.07h-12.8a5,5,0,0,0-5.07,5.07Z"/><path class="cls-5" d="M306.35,109.77,294.61,92.32c-2-2.94-4-5.93-6.05-8.94v26.39H267.85V0h34.62a20,20,0,0,1,8.15,1.72,21.64,21.64,0,0,1,6.56,4.46,20.94,20.94,0,0,1,4.42,6.62,20.65,20.65,0,0,1,1.62,8.09V58a19.19,19.19,0,0,1-1.94,8.68,20.63,20.63,0,0,1-5,6.45,22.89,22.89,0,0,1-7,4.14l-.67.24c2.26,3.32,4.5,6.62,6.68,9.86,3.47,5.15,7,10.34,10.5,15.42l4.86,7Zm-4.28-50.7a.42.42,0,0,0,.45-.58v-38c0-.34-.07-.41-.16-.51s-.12-.07-.29-.07H288.56V59.07Z"/><path class="cls-5" d="M301,74.35q5.34,7.74,10.54,15.47t10.53,15.47H308.74q-5.21-7.74-10.4-15.47T287.8,74.35l-3.73.14v30.8H272.34V4.49h30.13a15.39,15.39,0,0,1,6.33,1.33A17.13,17.13,0,0,1,314,9.35a16.38,16.38,0,0,1,4.74,11.54V58a14.67,14.67,0,0,1-1.47,6.67,16.25,16.25,0,0,1-3.93,5.07A18.68,18.68,0,0,1,307.67,73,20.94,20.94,0,0,1,301,74.35Zm1.07-10.8a4.65,4.65,0,0,0,3.53-1.46,5,5,0,0,0,1.4-3.6v-38a5,5,0,0,0-1.4-3.6,4.66,4.66,0,0,0-3.53-1.47h-18V63.55Z"/><line class="cls-1" x1="434.63" y1="134.92" x2="420.08" y2="134.92"/><line class="cls-1" x1="344.99" y1="201.12" x2="49.02" y2="201.12"/><line class="cls-1" x1="344.99" y1="122.16" y2="122.16"/></g></g></svg>