<?xml version="1.0" encoding="UTF-8" standalone="no"?>
<!DOCTYPE svg PUBLIC "-//W3C//DTD SVG 1.1//EN" "http://www.w3.org/Graphics/SVG/1.1/DTD/svg11.dtd">
<svg width="100%" height="100%" viewBox="0 0 285 209" version="1.1" xmlns="http://www.w3.org/2000/svg" xmlns:xlink="http://www.w3.org/1999/xlink" xml:space="preserve" xmlns:serif="http://www.serif.com/" style="fill-rule:evenodd;clip-rule:evenodd;stroke-miterlimit:10;">
    <g transform="matrix(1,0,0,1,-725.61,-35.7623)">
        <g>
            <g transform="matrix(1,0,0,1,844.23,55.8582)">
                <path d="M0,71.343C-1.899,69.158 -4.29,67.405 -6.996,66.252C-9.309,65.27 -11.861,64.726 -14.535,64.723C-17.21,64.72 -19.755,65.264 -22.072,66.254L-22.077,16.466L-22.077,0.338C-19.593,0.114 -17.078,0 -14.535,0.004C-11.993,0.008 -9.473,0.114 -6.992,0.339L-6.991,16.467" style="fill:none;fill-rule:nonzero;stroke:rgb(232,77,15);stroke-width:4px;"/>
            </g>
            <g transform="matrix(1,0,0,1,875.485,149.133)">
                <path d="M0,40.905L9.474,53.96C5.69,57.269 1.611,60.242 -2.719,62.837L-12.202,49.778L-41.467,9.495C-32.904,7.54 -26.52,-0.132 -26.517,-9.286C-26.521,-14.133 -28.309,-18.551 -31.256,-21.932" style="fill:none;fill-rule:nonzero;stroke:rgb(232,77,15);stroke-width:4px;"/>
            </g>
            <g transform="matrix(1,0,0,1,763.131,211.97)">
                <path d="M0,-85.816L47.373,-70.423C48.1,-62.03 54.226,-55.171 62.245,-53.334L32.973,-13.046L23.493,0C19.15,-2.594 15.072,-5.564 11.294,-8.885L20.771,-21.923C7.16,-34.36 -1.381,-52.244 -1.38,-72.121C-1.379,-76.813 -0.899,-81.393 0,-85.816Z" style="fill:none;fill-rule:nonzero;stroke:rgb(232,77,15);stroke-width:4px;"/>
            </g>
            <g transform="matrix(1,0,0,1,752.452,141.547)">
                <path d="M0,-34.727L62.714,-14.35C59.762,-10.967 57.972,-6.539 57.976,-1.691C57.977,-1.121 58.001,-0.554 58.052,0L-4.663,-20.377C-3.53,-25.349 -1.964,-30.135 0,-34.727Z" style="fill:none;fill-rule:nonzero;stroke:rgb(232,77,15);stroke-width:4px;"/>
            </g>
            <g transform="matrix(1,0,0,1,783.901,134.208)">
                <path d="M0,55.839L-9.477,68.877C-27.083,53.485 -38.195,30.864 -38.192,5.649C-38.198,-0.778 -37.471,-7.033 -36.112,-13.038L-20.771,-8.054C-21.67,-3.631 -22.149,0.949 -22.15,5.642C-22.151,25.519 -13.61,43.402 0,55.839Z" style="fill:none;fill-rule:nonzero;stroke:rgb(232,77,15);stroke-width:4px;"/>
            </g>
            <g transform="matrix(1,0,0,1,822.152,207.714)">
                <path d="M0,-135.39L0.005,-85.602C2.322,-86.592 4.867,-87.136 7.542,-87.133C10.216,-87.13 12.769,-86.586 15.081,-85.604C17.787,-84.451 20.178,-82.698 22.077,-80.513C25.024,-77.132 26.812,-72.714 26.816,-67.868C26.813,-58.713 20.429,-51.041 11.866,-49.086L41.131,-8.803L50.614,4.256C38.013,11.794 23.286,16.12 7.541,16.124C-8.205,16.128 -22.935,11.792 -35.528,4.256L-26.049,-8.79L3.224,-49.077C-4.796,-50.915 -10.922,-57.774 -11.648,-66.167C-11.699,-66.721 -11.724,-67.287 -11.725,-67.858C-11.729,-72.705 -9.938,-77.134 -6.986,-80.517L-69.7,-100.894C-57.816,-128.663 -31.397,-148.727 0,-151.518L0,-135.39Z" style="fill:none;fill-rule:nonzero;stroke:rgb(232,77,15);stroke-width:4px;"/>
            </g>
            <g transform="matrix(1,0,0,1,829.694,159.532)">
                <path d="M0,-38.951C2.674,-38.948 5.227,-38.404 7.539,-37.422C10.245,-36.269 12.636,-34.516 14.535,-32.331C17.482,-28.95 19.271,-24.532 19.274,-19.685C19.271,-10.531 12.887,-2.859 4.324,-0.904L33.589,39.379C23.683,45.03 12.219,48.257 0.006,48.257C-12.219,48.254 -23.682,45.034 -33.591,39.392L-4.318,-0.895C-12.338,-2.733 -18.464,-9.592 -19.19,-17.985C-19.241,-18.539 -19.266,-19.105 -19.267,-19.676C-19.271,-24.523 -17.48,-28.952 -14.528,-32.335L-61.901,-47.727C-52.214,-69.073 -31.811,-84.524 -7.542,-87.208L-7.537,-37.42C-5.22,-38.41 -2.675,-38.953 0,-38.951Z" style="fill:none;fill-rule:nonzero;stroke:rgb(232,77,15);stroke-width:4px;"/>
            </g>
            <g transform="matrix(1,0,0,1,837.233,157.589)">
                <path d="M0,-35.479C2.706,-34.326 5.097,-32.573 6.996,-30.388C9.943,-27.007 11.731,-22.589 11.735,-17.742C11.732,-8.588 5.348,-0.916 -3.215,1.039C-4.604,1.366 -6.05,1.531 -7.54,1.53C-9.021,1.531 -10.47,1.367 -11.857,1.048C-19.877,-0.79 -26.003,-7.648 -26.729,-16.042C-26.78,-16.596 -26.805,-17.162 -26.806,-17.732C-26.81,-22.58 -25.02,-27.009 -22.067,-30.392C-20.161,-32.579 -17.774,-34.325 -15.076,-35.477C-12.759,-36.467 -10.214,-37.01 -7.539,-37.008C-4.865,-37.005 -2.313,-36.46 0,-35.479Z" style="fill:none;fill-rule:nonzero;stroke:rgb(232,77,15);stroke-width:4px;"/>
            </g>
            <g transform="matrix(-0.000100432,1,1,0.000100432,862.128,97.2222)">
                <path d="M-24.895,-24.893L24.89,-24.893" style="fill:none;fill-rule:nonzero;stroke:rgb(232,77,15);stroke-width:4px;"/>
            </g>
            <g transform="matrix(0.601394,0.798953,0.798953,-0.601394,885.11,203.065)">
                <path d="M-0.069,-0.138L0.276,-0.138" style="fill:none;fill-rule:nonzero;stroke:rgb(232,77,15);stroke-width:4px;"/>
            </g>
            <g transform="matrix(0.58789,0.808941,0.808941,-0.58789,868.552,146.316)">
                <path d="M-10.237,-20.095L39.444,-20.095" style="fill:none;fill-rule:nonzero;stroke:rgb(232,77,15);stroke-width:4px;"/>
            </g>
            <g transform="matrix(0.584619,0.811308,0.811308,-0.584619,872.918,211.947)">
                <path d="M-0.07,-0.136L0.266,-0.136" style="fill:none;fill-rule:nonzero;stroke:rgb(232,77,15);stroke-width:4px;"/>
            </g>
            <g transform="matrix(0.592817,0.805337,0.805337,-0.592817,834.006,158.549)">
                <path d="M-0.018,-0.036L0.071,-0.036" style="fill:none;fill-rule:nonzero;stroke:rgb(232,77,15);stroke-width:4px;"/>
            </g>
            <g transform="matrix(-0.593199,0.805056,0.805056,0.593199,786.575,212.261)">
                <path d="M-0.263,-0.133L0.067,-0.133" style="fill:none;fill-rule:nonzero;stroke:rgb(232,77,15);stroke-width:4px;"/>
            </g>
            <g transform="matrix(-0.578256,0.815856,0.815856,0.578256,774.382,203.392)">
                <path d="M-0.276,-0.143L0.074,-0.143" style="fill:none;fill-rule:nonzero;stroke:rgb(232,77,15);stroke-width:4px;"/>
            </g>
            <g transform="matrix(-0.587779,0.809021,0.809021,0.587779,806.054,193.555)">
                <path d="M-39.22,-19.984L10.182,-19.984" style="fill:none;fill-rule:nonzero;stroke:rgb(232,77,15);stroke-width:4px;"/>
            </g>
            <g transform="matrix(1,0,0,1,896.217,198.109)">
                <path d="M0,-72.046L15.33,-77.027C20.527,-54.227 16.241,-29.312 1.417,-8.913C-2.356,-3.711 -6.62,0.922 -11.25,4.981L-20.731,-8.069C-17.404,-11.118 -14.324,-14.542 -11.565,-18.338C0.119,-34.418 3.701,-53.984 0,-72.046Z" style="fill:none;fill-rule:nonzero;stroke:rgb(232,77,15);stroke-width:4px;"/>
            </g>
            <g transform="matrix(1,0,0,1,837.233,95.6509)">
                <path d="M0,-23.336L0.004,-39.454C23.294,-37.351 45.582,-25.582 60.4,-5.18C64.183,0.016 67.283,5.573 69.681,11.145L54.329,16.118C52.49,12.096 50.184,8.051 47.426,4.254C35.743,-11.827 18.321,-21.274 0,-23.336Z" style="fill:none;fill-rule:nonzero;stroke:rgb(232,77,15);stroke-width:4px;"/>
            </g>
            <g transform="matrix(1,0,0,1,911.547,127.173)">
                <path d="M0,-6.09L-62.715,14.286C-62.314,9.816 -63.47,5.18 -66.322,1.261C-66.658,0.8 -67.011,0.356 -67.403,-0.047L-4.633,-20.376C-2.536,-15.922 -1.089,-11.174 0,-6.09Z" style="fill:none;fill-rule:nonzero;stroke:rgb(232,77,15);stroke-width:4px;"/>
            </g>
            <g transform="matrix(1,0,0,1,912.804,131.304)">
                <path d="M0,-8.206L73.059,-8.206C75.315,-8.206 77.161,-6.36 77.161,-4.103C77.161,-1.847 75.315,0 73.059,0L1.724,0" style="fill:none;fill-rule:nonzero;stroke:rgb(232,77,15);stroke-width:4px;"/>
            </g>
            <g transform="matrix(1,0,0,1,982.481,194.787)">
                <path d="M0,-63.483L-14.106,-31.649L0,0" style="fill:none;fill-rule:nonzero;stroke:rgb(232,77,15);stroke-width:4px;"/>
            </g>
            <g transform="matrix(1,0,0,1,894.009,202.992)">
                <path d="M0,-8.205L90.576,-8.205C93.535,-8.205 95.956,-6.358 95.956,-4.102C95.956,-1.846 93.535,0 90.576,0L-8.33,0" style="fill:none;fill-rule:nonzero;stroke:rgb(232,77,15);stroke-width:4px;"/>
            </g>
            <g transform="matrix(-1,0,0,1,911.547,163.138)">
                <path d="M-56.828,0L0,0" style="fill:none;fill-rule:nonzero;stroke:rgb(232,77,15);stroke-width:4px;"/>
            </g>
        </g>
    </g>
</svg>
