<svg xmlns="http://www.w3.org/2000/svg" viewBox="0 0 248.43 172.15"><defs><style>.cls-1,.cls-2{fill:none;stroke:#000;stroke-miterlimit:10;}.cls-1{stroke-width:4.17px;}.cls-2{stroke-width:4.18px;}</style></defs><g id="Layer_2" data-name="Layer 2"><g id="felnijav"><path class="cls-1" d="M100.61,73.42A19.22,19.22,0,0,0,86.07,66.8a19.17,19.17,0,0,0-7.54,1.54V2.42c2.48-.22,5-.34,7.54-.33s5.06.11,7.54.33V18.55A68,68,0,0,1,148,58"/><path class="cls-1" d="M131.86,136.26l9.48,13.06a84.44,84.44,0,0,1-12.2,8.87l-9.48-13.06L90.4,104.85a19.26,19.26,0,0,0,10.21-31.43"/><path class="cls-1" d="M19.51,72.38,66.88,87.77a19.29,19.29,0,0,0,14.87,17.09L52.48,145.15l-9.48,13a82.69,82.69,0,0,1-12.2-8.88l9.48-13a67.81,67.81,0,0,1-22.15-50.2A68.57,68.57,0,0,1,19.51,72.38Z"/><path class="cls-1" d="M8.83,53,71.54,73.42A19.19,19.19,0,0,0,66.8,86.08c0,.57,0,1.14.08,1.69L4.17,67.39A84.13,84.13,0,0,1,8.83,53Z"/><path class="cls-1" d="M40.28,136.27l-9.48,13A84.19,84.19,0,0,1,4.17,67.39l15.34,5a68.57,68.57,0,0,0-1.38,13.69A67.81,67.81,0,0,0,40.28,136.27Z"/><path class="cls-1" d="M78.53,18.55V68.34a19.17,19.17,0,0,1,7.54-1.54,19.22,19.22,0,0,1,14.54,6.62A19.26,19.26,0,0,1,90.4,104.85l29.26,40.28,9.48,13.06a84.07,84.07,0,0,1-86.14,0l9.48-13,29.27-40.29A19.29,19.29,0,0,1,66.88,87.77c0-.55-.07-1.12-.08-1.69a19.19,19.19,0,0,1,4.74-12.66L8.83,53A84,84,0,0,1,78.53,2.42Z"/><path class="cls-1" d="M86.07,66.8a19.22,19.22,0,0,1,14.54,6.62A19.26,19.26,0,0,1,90.4,104.85l29.26,40.28a68,68,0,0,1-67.18,0l29.27-40.29A19.29,19.29,0,0,1,66.88,87.77c0-.55-.07-1.12-.08-1.69a19.19,19.19,0,0,1,4.74-12.66L24.17,58A68,68,0,0,1,78.53,18.55V68.34A19.17,19.17,0,0,1,86.07,66.8Z"/><path class="cls-1" d="M93.61,68.33a19.27,19.27,0,0,1-3.21,36.52,18.72,18.72,0,0,1-4.33.49A19.21,19.21,0,0,1,66.88,87.77c0-.55-.07-1.12-.08-1.69a19.19,19.19,0,0,1,4.74-12.66,19.39,19.39,0,0,1,7-5.08,19.17,19.17,0,0,1,7.54-1.54A19.49,19.49,0,0,1,93.61,68.33Z"/><line class="cls-1" x1="93.61" y1="18.55" x2="93.61" y2="68.33"/><line class="cls-1" x1="163.26" y1="53.06" x2="147.97" y2="58.03"/><line class="cls-1" x1="141.34" y1="149.32" x2="141.54" y2="149.59"/><line class="cls-1" x1="102.65" y1="96.07" x2="131.86" y2="136.26"/><line class="cls-1" x1="129.14" y1="158.19" x2="129.34" y2="158.47"/><line class="cls-1" x1="90.34" y1="104.78" x2="90.4" y2="104.85"/><line class="cls-1" x1="43" y1="158.19" x2="42.8" y2="158.46"/><line class="cls-1" x1="30.8" y1="149.31" x2="30.6" y2="149.59"/><line class="cls-1" x1="69.32" y1="96.3" x2="40.28" y2="136.27"/><path class="cls-1" d="M152.61,72.37l15.33-5a84.11,84.11,0,0,1-26.6,81.92l-9.48-13.05a68,68,0,0,0,20.75-63.89Z"/><path class="cls-1" d="M93.61,18.54V2.42A83.74,83.74,0,0,1,154,36.69,84.66,84.66,0,0,1,163.31,53L148,58A69.06,69.06,0,0,0,141,46.13,67.83,67.83,0,0,0,93.61,18.54Z"/><path class="cls-1" d="M167.92,67.31,105.21,87.68a19.17,19.17,0,0,0-3.61-13c-.33-.46-.69-.91-1-1.33L163.26,53A83.13,83.13,0,0,1,167.92,67.31Z"/><path class="cls-1" d="M169.18,69.32h73.06a4.11,4.11,0,0,1,4.1,4.1h0a4.11,4.11,0,0,1-4.1,4.11H170.9"/><polyline class="cls-1" points="238.86 77.53 224.75 109.36 238.86 141.01"/><path class="cls-2" d="M150.39,141H241c3,0,5.38,1.85,5.38,4.1h0c0,2.26-2.42,4.11-5.38,4.11h-98.9"/><line class="cls-1" x1="224.75" y1="109.36" x2="167.92" y2="109.36"/></g></g></svg>