<svg xmlns="http://www.w3.org/2000/svg" viewBox="0 0 199 173.69"><defs><style>.cls-1,.cls-2,.cls-3{fill:none;stroke:#000;stroke-miterlimit:10;}.cls-1{stroke-width:3px;}.cls-2{stroke-width:2.49px;}.cls-3{stroke-width:2px;}</style></defs><g id="Layer_2" data-name="Layer 2"><g id="gépi_forg" data-name="gépi forg"><rect class="cls-1" x="3.15" y="95.9" width="194.35" height="76.3"/><rect class="cls-1" x="39.65" y="143.96" width="145.73" height="28.24"/><line class="cls-1" x1="39.65" y1="123.25" x2="185.38" y2="123.25"/><line class="cls-1" x1="20.57" y1="95.9" x2="20.57" y2="91.16"/><line class="cls-1" x1="174.75" y1="95.11" x2="174.75" y2="90.38"/><rect class="cls-1" x="3.15" y="84.18" width="194.35" height="6.2"/><rect class="cls-1" x="7.92" y="1.5" width="46.3" height="82.68"/><rect class="cls-1" x="54.22" y="16.74" width="9.61" height="42.65"/><rect class="cls-1" x="72.28" y="75.39" width="51.59" height="8.79"/><rect class="cls-1" x="1.5" y="16.74" width="6.42" height="42.65"/><rect class="cls-1" x="63.83" y="23.35" width="7.51" height="27.94"/><rect class="cls-2" x="14.72" y="11.79" width="32.14" height="16.99"/><line class="cls-3" x1="14.72" y1="64.51" x2="46.86" y2="64.51"/><line class="cls-3" x1="15" y1="73.67" x2="47.14" y2="73.67"/><rect class="cls-1" x="159.01" y="59.4" width="31.47" height="24.78"/><rect class="cls-1" x="151.99" y="24.4" width="45.51" height="34.99"/><rect class="cls-1" x="139.15" y="24.4" width="12.84" height="27.33"/><rect class="cls-1" x="131.12" y="32.51" width="8.04" height="9.61"/><line class="cls-1" x1="131.12" y1="37.32" x2="117.19" y2="37.32"/><line class="cls-3" x1="164.09" y1="30.78" x2="197.5" y2="30.78"/><line class="cls-3" x1="164.09" y1="37.32" x2="197.5" y2="37.32"/><line class="cls-3" x1="170.91" y1="43.99" x2="197.5" y2="43.99"/><circle class="cls-3" cx="20.57" cy="111.57" r="6.72"/><circle class="cls-3" cx="20.57" cy="133.96" r="6.72"/></g></g></svg>