<?xml version="1.0" encoding="UTF-8" standalone="no"?>
<!DOCTYPE svg PUBLIC "-//W3C//DTD SVG 1.1//EN" "http://www.w3.org/Graphics/SVG/1.1/DTD/svg11.dtd">
<svg width="100%" height="100%" viewBox="0 0 237 211" version="1.1" xmlns="http://www.w3.org/2000/svg" xmlns:xlink="http://www.w3.org/1999/xlink" xml:space="preserve" xmlns:serif="http://www.serif.com/" style="fill-rule:evenodd;clip-rule:evenodd;stroke-miterlimit:10;">
    <g transform="matrix(1,0,0,1,-0.312249,-34.9172)">
        <g>
            <g transform="matrix(-1,0,0,1,238.476,125.121)">
                <rect x="22.064" y="24.291" width="194.348" height="76.297" style="fill:none;stroke:rgb(232,77,15);stroke-width:4px;"/>
            </g>
            <g transform="matrix(-1,0,0,1,262.855,173.182)">
                <rect x="58.561" y="24.291" width="145.733" height="28.236" style="fill:none;stroke:rgb(232,77,15);stroke-width:4px;"/>
            </g>
            <g transform="matrix(1,0,0,1,58.5605,176.768)">
                <path d="M0,0L145.733,0" style="fill:none;fill-rule:nonzero;stroke:rgb(232,77,15);stroke-width:4px;"/>
            </g>
            <g transform="matrix(0,-1,-1,0,41.8518,147.047)">
                <path d="M-2.366,2.366L2.366,2.366" style="fill:none;fill-rule:nonzero;stroke:rgb(232,77,15);stroke-width:4px;"/>
            </g>
            <g transform="matrix(0,-1,-1,0,196.023,146.258)">
                <path d="M-2.365,2.365L2.365,2.365" style="fill:none;fill-rule:nonzero;stroke:rgb(232,77,15);stroke-width:4px;"/>
            </g>
            <g transform="matrix(-1,0,0,1,238.476,31.591)">
                <rect x="22.064" y="106.107" width="194.348" height="6.195" style="fill:none;stroke:rgb(232,77,15);stroke-width:4px;"/>
            </g>
            <g transform="matrix(-1,0,0,1,99.962,-57.285)">
                <rect x="26.833" y="112.302" width="46.296" height="82.681" style="fill:none;stroke:rgb(232,77,15);stroke-width:4px;"/>
            </g>
            <g transform="matrix(-1,0,0,1,155.87,-66.824)">
                <rect x="73.129" y="137.085" width="9.612" height="42.654" style="fill:none;stroke:rgb(232,77,15);stroke-width:4px;"/>
            </g>
            <g transform="matrix(-1,0,0,1,233.969,16.607)">
                <rect x="91.189" y="112.303" width="51.591" height="8.787" style="fill:none;stroke:rgb(232,77,15);stroke-width:4px;"/>
            </g>
            <g transform="matrix(1,0,0,1,0,-66.824)">
                <rect x="20.412" y="137.085" width="6.421" height="42.654" style="fill:none;stroke:rgb(232,77,15);stroke-width:4px;"/>
            </g>
            <g transform="matrix(-1,0,0,1,172.992,-68.326)">
                <rect x="82.741" y="145.195" width="7.51" height="27.936" style="fill:none;stroke:rgb(232,77,15);stroke-width:4px;"/>
            </g>
            <g transform="matrix(-1,0,0,1,99.399,-102.399)">
                <rect x="33.629" y="167.703" width="32.141" height="16.993" style="fill:none;stroke:rgb(232,77,15);stroke-width:4px;"/>
            </g>
            <g transform="matrix(1,0,0,1,33.6284,118.022)">
                <path d="M0,0L32.141,0" style="fill:none;fill-rule:nonzero;stroke:rgb(232,77,15);stroke-width:4px;"/>
            </g>
            <g transform="matrix(1,0,0,1,33.9102,127.184)">
                <path d="M0,0L32.141,0" style="fill:none;fill-rule:nonzero;stroke:rgb(232,77,15);stroke-width:4px;"/>
            </g>
            <g transform="matrix(1,0,0,1,0,0.612)">
                <rect x="177.925" y="112.303" width="31.465" height="24.782" style="fill:none;stroke:rgb(232,77,15);stroke-width:4px;"/>
            </g>
            <g transform="matrix(1,0,0,1,0,-59.165)">
                <rect x="170.904" y="137.085" width="45.508" height="34.995" style="fill:none;stroke:rgb(232,77,15);stroke-width:4px;"/>
            </g>
            <g transform="matrix(1,0,0,1,0,-66.825)">
                <rect x="158.062" y="144.745" width="12.841" height="27.335" style="fill:none;stroke:rgb(232,77,15);stroke-width:4px;"/>
            </g>
            <g transform="matrix(-1,0,0,1,308.088,-68.326)">
                <rect x="150.026" y="154.357" width="8.036" height="9.612" style="fill:none;stroke:rgb(232,77,15);stroke-width:4px;"/>
            </g>
            <g transform="matrix(-1,0,0,1,136.097,90.8369)">
                <path d="M-13.93,0L0,0" style="fill:none;fill-rule:nonzero;stroke:rgb(232,77,15);stroke-width:4px;"/>
            </g>
            <g transform="matrix(1,0,0,1,183,84.2974)">
                <path d="M0,0L33.412,0" style="fill:none;fill-rule:nonzero;stroke:rgb(232,77,15);stroke-width:4px;"/>
            </g>
            <g transform="matrix(1,0,0,1,183,90.8369)">
                <path d="M0,0L33.412,0" style="fill:none;fill-rule:nonzero;stroke:rgb(232,77,15);stroke-width:4px;"/>
            </g>
            <g transform="matrix(1,0,0,1,189.824,97.502)">
                <path d="M0,0L26.588,0" style="fill:none;fill-rule:nonzero;stroke:rgb(232,77,15);stroke-width:4px;"/>
            </g>
            <g transform="matrix(0,-1,-1,0,39.4861,158.366)">
                <circle cx="-6.72" cy="0" r="6.72" style="fill:none;stroke:rgb(232,77,15);stroke-width:4px;"/>
            </g>
            <g transform="matrix(0,-1,-1,0,39.4861,180.761)">
                <circle cx="-6.72" cy="0" r="6.72" style="fill:none;stroke:rgb(232,77,15);stroke-width:4px;"/>
            </g>
        </g>
    </g>
</svg>
