<?xml version="1.0" encoding="UTF-8" standalone="no"?>
<!DOCTYPE svg PUBLIC "-//W3C//DTD SVG 1.1//EN" "http://www.w3.org/Graphics/SVG/1.1/DTD/svg11.dtd">
<svg width="100%" height="100%" viewBox="0 0 174 213" version="1.1" xmlns="http://www.w3.org/2000/svg" xmlns:xlink="http://www.w3.org/1999/xlink" xml:space="preserve" xmlns:serif="http://www.serif.com/" style="fill-rule:evenodd;clip-rule:evenodd;stroke-miterlimit:10;">
    <g transform="matrix(1,0,0,1,-282.433,-34.0799)">
        <g>
            <g transform="matrix(-0.898769,0.438423,0.438423,0.898769,381.627,155.158)">
                <rect x="-29.577" y="-6.828" width="17.745" height="58.072" style="fill:none;stroke:rgb(232,77,15);stroke-width:4px;"/>
            </g>
            <g transform="matrix(-0.898748,0.438465,0.438465,0.898748,414.492,202.514)">
                <rect x="-23.823" y="-5.501" width="23.788" height="5.656" style="fill:none;stroke:rgb(232,77,15);stroke-width:4px;"/>
            </g>
            <g transform="matrix(-0.898748,0.438465,0.438465,0.898748,386.452,145.035)">
                <rect x="-23.823" y="-5.501" width="23.788" height="5.656" style="fill:none;stroke:rgb(232,77,15);stroke-width:4px;"/>
            </g>
            <g transform="matrix(0.438444,0.898759,0.898759,-0.438444,426.645,155.814)">
                <path d="M-9.808,-15.698L25.124,-15.698" style="fill:none;fill-rule:nonzero;stroke:rgb(232,77,15);stroke-width:4px;"/>
            </g>
            <g transform="matrix(1,0,0,1,394.761,87.8994)">
                <path d="M0,46.961L-17.363,11.371L-50.395,0" style="fill:none;fill-rule:nonzero;stroke:rgb(232,77,15);stroke-width:4px;"/>
            </g>
            <g transform="matrix(-0.325419,0.94557,0.94557,0.325419,344.689,105.654)">
                <rect x="-19.661" y="-14.026" width="6.092" height="33.047" style="fill:rgb(232,77,15);stroke:rgb(232,77,15);stroke-width:4px;"/>
            </g>
            <g transform="matrix(0.254164,0.967161,0.967161,-0.254164,345.506,165.085)">
                <path d="M53.002,-40.072C49.751,-37.127 45.301,-32.189 43.3,-25.109C41.5,-18.74 41.489,-9.954 53.002,12.457C66.632,38.985 76.16,45.186 73.477,54.182C72.155,58.618 67.6,64.621 51.238,68.836" style="fill:none;fill-rule:nonzero;stroke:rgb(232,77,15);stroke-width:4px;"/>
            </g>
            <g transform="matrix(-0.325497,0.945543,0.945543,0.325497,336.234,110.98)">
                <path d="M-15.804,-11.274L8.042,-11.274" style="fill:none;fill-rule:nonzero;stroke:rgb(232,77,15);stroke-width:4px;"/>
            </g>
            <g transform="matrix(-0.325497,0.945543,0.945543,0.325497,349.379,72.793)">
                <path d="M-15.804,-11.274L8.042,-11.274" style="fill:none;fill-rule:nonzero;stroke:rgb(232,77,15);stroke-width:4px;"/>
            </g>
            <g transform="matrix(1,0,0,1,320.586,75.2251)">
                <path d="M0,4.668L-18.054,-1.547L4.494,6.215L2.052,5.374" style="fill:none;fill-rule:nonzero;stroke:rgb(232,77,15);stroke-width:4px;"/>
            </g>
            <g transform="matrix(0.43847,0.898746,0.898746,-0.43847,331.549,56.4056)">
                <path d="M-6.695,-10.716L17.151,-10.716" style="fill:none;fill-rule:nonzero;stroke:rgb(232,77,15);stroke-width:4px;"/>
            </g>
            <g transform="matrix(0.898746,-0.43847,-0.43847,-0.898746,306.845,102.913)">
                <path d="M-1.207,5.228L22.639,5.228" style="fill:none;fill-rule:nonzero;stroke:rgb(232,77,15);stroke-width:4px;"/>
            </g>
        </g>
    </g>
</svg>
