<svg xmlns="http://www.w3.org/2000/svg" viewBox="0 0 135.65 173.33"><defs><style>.cls-1,.cls-2,.cls-4{fill:none;}.cls-1,.cls-2,.cls-3,.cls-4{stroke:#000;stroke-miterlimit:10;}.cls-1{stroke-width:2.83px;}.cls-2{stroke-width:5.66px;}.cls-3{stroke-width:2.62px;}.cls-4{stroke-width:1.99px;}</style></defs><g id="Layer_2" data-name="Layer 2"><g id="hegeszt"><rect class="cls-1" x="98.89" y="83.15" width="17.74" height="58.07" transform="translate(-38.28 58.61) rotate(-26.01)"/><path class="cls-1" d="M133.76,138.35l-21.38,10.43-2.48-5.08,21.38-10.43Z"/><rect class="cls-1" x="81.9" y="80.72" width="23.79" height="5.66" transform="translate(-27.13 49.58) rotate(-26.01)"/><line class="cls-1" x1="106.03" y1="100.02" x2="121.34" y2="131.42"/><polyline class="cls-2" points="92.55 81 75.19 45.41 42.16 34.04"/><rect class="cls-3" x="47.2" y="20.38" width="6.09" height="33.05" transform="translate(-1 72.4) rotate(-71.01)"/><path class="cls-1" d="M18,172.67a32.3,32.3,0,0,1,12-13.18c5.7-3.36,14.19-5.61,38.8-.17,29.12,6.44,37.54,14.08,45.55,9.2,4-2.4,8.61-8.34,8.52-25.23"/><line class="cls-4" x1="28.51" y1="38.51" x2="20.75" y2="61.06"/><line class="cls-4" x1="41.65" y1="0.32" x2="33.89" y2="22.87"/><polyline class="cls-4" points="18.38 26.04 0.32 19.82 22.87 27.58 20.43 26.74"/><line class="cls-4" x1="16.77" y1="1.23" x2="27.23" y2="22.66"/><line class="cls-4" x1="1.26" y1="44.89" x2="22.69" y2="34.43"/></g></g></svg>