<?xml version="1.0" encoding="UTF-8" standalone="no"?>
<!DOCTYPE svg PUBLIC "-//W3C//DTD SVG 1.1//EN" "http://www.w3.org/Graphics/SVG/1.1/DTD/svg11.dtd">
<svg width="100%" height="100%" viewBox="0 0 246 246" version="1.1" xmlns="http://www.w3.org/2000/svg" xmlns:xlink="http://www.w3.org/1999/xlink" xml:space="preserve" xmlns:serif="http://www.serif.com/" style="fill-rule:evenodd;clip-rule:evenodd;stroke-linejoin:round;stroke-miterlimit:2;">
    <g id="Layer_2">
        <g id="Layer_6">
            <path d="M231.92,100.17L221.63,100.17C219.102,88.877 214.643,78.105 208.45,68.33L215.71,61.07C219.991,56.768 219.991,49.712 215.71,45.41L199.71,29.41C195.413,25.118 188.347,25.118 184.05,29.41L176.79,36.67C167.031,30.48 156.276,26.021 145,23.49L145,13.22C144.995,7.14 139.99,2.14 133.91,2.14C133.897,2.14 133.883,2.14 133.87,2.14L111.25,2.14C105.174,2.145 100.175,7.144 100.17,13.22L100.17,23.49C88.876,26.014 78.103,30.473 68.33,36.67L61.07,29.41C56.773,25.118 49.707,25.118 45.41,29.41L29.41,45.41C25.118,49.707 25.118,56.773 29.41,61.07L36.67,68.33C30.473,78.103 26.014,88.876 23.49,100.17L13.22,100.17C7.144,100.175 2.145,105.174 2.14,111.25L2.14,133.87C2.14,133.883 2.14,133.897 2.14,133.91C2.14,139.99 7.14,144.995 13.22,145L23.49,145C26.015,156.294 30.474,167.066 36.67,176.84L29.41,184.1C25.118,188.397 25.118,195.463 29.41,199.76L45.41,215.76C49.707,220.052 56.773,220.052 61.07,215.76L68.33,208.5C78.105,214.693 88.877,219.152 100.17,221.68L100.17,231.9C100.17,231.903 100.17,231.907 100.17,231.91C100.17,237.99 105.17,242.995 111.25,243L133.87,243C133.883,243 133.897,243 133.91,243C139.994,243 145,237.994 145,231.91C145,231.907 145,231.903 145,231.9L145,221.63C156.292,219.1 167.064,214.641 176.84,208.45L184.1,215.71C188.397,220.002 195.463,220.002 199.76,215.71L215.76,199.71C220.052,195.413 220.052,188.347 215.76,184.05L208.5,176.79C214.67,167.026 219.112,156.272 221.63,145L231.9,145C231.903,145 231.907,145 231.91,145C237.994,145 243,139.994 243,133.91C243,133.897 243,133.883 243,133.87L243,111.25C242.995,105.174 237.996,100.175 231.92,100.17ZM235.9,133.87C235.9,136.064 234.094,137.87 231.9,137.87L218.76,137.87C217.077,137.867 215.614,139.068 215.29,140.72C212.906,153.085 208.045,164.842 201,175.28C200.053,176.677 200.235,178.568 201.43,179.76L210.72,189.04C211.474,189.79 211.898,190.811 211.898,191.875C211.898,192.939 211.474,193.96 210.72,194.71L194.72,210.71C193.97,211.464 192.949,211.888 191.885,211.888C190.821,211.888 189.8,211.464 189.05,210.71L179.77,201.42C178.578,200.225 176.687,200.043 175.29,200.99C164.853,208.033 153.101,212.897 140.74,215.29C139.088,215.614 137.887,217.077 137.89,218.76L137.89,231.9C137.89,234.094 136.084,235.9 133.89,235.9L111.25,235.9C109.056,235.9 107.25,234.094 107.25,231.9L107.25,218.76C107.248,217.075 106.043,215.614 104.39,215.29C92.026,212.902 80.27,208.041 69.83,201C69.241,200.597 68.543,200.384 67.83,200.39C66.898,200.382 65.999,200.742 65.33,201.39L56.04,210.68C55.29,211.431 54.271,211.853 53.21,211.853C52.149,211.853 51.13,211.431 50.38,210.68L34.38,194.68C33.626,193.93 33.202,192.909 33.202,191.845C33.202,190.781 33.626,189.76 34.38,189.01L43.67,179.73C44.854,178.533 45.035,176.651 44.1,175.25C37.053,164.816 32.188,153.063 29.8,140.7C29.476,139.048 28.013,137.847 26.33,137.85L13.22,137.85C11.026,137.85 9.22,136.044 9.22,133.85L9.22,111.25C9.22,109.056 11.026,107.25 13.22,107.25L26.36,107.25C28.045,107.248 29.506,106.043 29.83,104.39C32.222,92.028 37.086,80.276 44.13,69.84C45.067,68.443 44.886,66.562 43.7,65.37L34.41,56.08C33.659,55.33 33.237,54.311 33.237,53.25C33.237,52.189 33.659,51.17 34.41,50.42L50.41,34.42C51.16,33.669 52.179,33.247 53.24,33.247C54.301,33.247 55.32,33.669 56.07,34.42L65.36,43.71C66.552,44.896 68.433,45.077 69.83,44.14C80.266,37.096 92.018,32.232 104.38,29.84C106.033,29.516 107.238,28.055 107.24,26.37L107.24,13.22C107.24,11.026 109.046,9.22 111.24,9.22L133.86,9.22C136.054,9.22 137.86,11.026 137.86,13.22L137.86,26.36C137.857,28.043 139.058,29.506 140.71,29.83C153.073,32.218 164.826,37.083 175.26,44.13C176.661,45.065 178.543,44.884 179.74,43.7L189,34.41C189.75,33.656 190.771,33.232 191.835,33.232C192.899,33.232 193.92,33.656 194.67,34.41L210.67,50.41C211.421,51.16 211.843,52.179 211.843,53.24C211.843,54.301 211.421,55.32 210.67,56.07L201.38,65.36C200.186,66.549 200.005,68.436 200.95,69.83C207.994,80.266 212.858,92.018 215.25,104.38C215.574,106.033 217.035,107.238 218.72,107.24L231.9,107.24C234.094,107.24 235.9,109.046 235.9,111.24L235.9,133.87Z" style="fill:rgb(232,77,15);fill-rule:nonzero;stroke:rgb(232,77,15);stroke-width:1px;"/>
            <path d="M58.22,122.56C58.232,87.261 87.281,58.222 122.58,58.222C131.17,58.222 139.675,59.942 147.59,63.28C147.995,63.435 148.425,63.515 148.858,63.515C150.8,63.515 152.398,61.917 152.398,59.975C152.398,58.596 151.593,57.337 150.34,56.76C141.539,53.039 132.081,51.121 122.526,51.121C83.346,51.121 51.106,83.362 51.106,122.541C51.106,138.889 56.719,154.751 67,167.46C67.674,168.296 68.692,168.782 69.765,168.782C71.714,168.782 73.317,167.179 73.317,165.23C73.317,164.419 73.039,163.631 72.53,163C63.288,151.55 58.236,137.275 58.22,122.56Z" style="fill:rgb(232,77,15);fill-rule:nonzero;stroke:rgb(232,77,15);stroke-width:1px;"/>
            <path d="M183.73,92.92C182.424,93.47 181.57,94.756 181.57,96.173C181.57,96.646 181.665,97.114 181.85,97.55C185.171,105.446 186.881,113.927 186.881,122.493C186.881,157.789 157.837,186.833 122.541,186.833C107.834,186.833 93.562,181.79 82.12,172.55C81.508,172.093 80.764,171.845 80.001,171.845C78.059,171.845 76.461,173.444 76.461,175.385C76.461,176.406 76.902,177.378 77.67,178.05C90.379,188.334 106.242,193.948 122.59,193.948C161.756,193.948 193.988,161.726 194,122.56C194.02,113.024 192.115,103.582 188.4,94.8C187.853,93.486 186.564,92.626 185.141,92.626C184.655,92.626 184.175,92.726 183.73,92.92Z" style="fill:rgb(232,77,15);fill-rule:nonzero;stroke:rgb(232,77,15);stroke-width:1px;"/>
            <path d="M163,72.52C166.534,75.374 169.756,78.596 172.61,82.13C173.282,82.898 174.254,83.339 175.275,83.339C177.216,83.339 178.815,81.741 178.815,79.799C178.815,79.036 178.567,78.292 178.11,77.68C174.94,73.754 171.363,70.174 167.44,67C166.828,66.543 166.084,66.295 165.321,66.295C163.379,66.295 161.781,67.894 161.781,69.835C161.781,70.856 162.222,71.828 162.99,72.5L163,72.52Z" style="fill:rgb(232,77,15);fill-rule:nonzero;stroke:rgb(232,77,15);stroke-width:1px;"/>
            <path d="M122.56,66.24C91.664,66.24 66.24,91.664 66.24,122.56C66.24,153.456 91.664,178.88 122.56,178.88C153.456,178.88 178.88,153.456 178.88,122.56C178.847,91.676 153.444,66.273 122.56,66.24ZM122.56,171.81C95.542,171.81 73.31,149.578 73.31,122.56C73.31,95.542 95.542,73.31 122.56,73.31C149.578,73.31 171.81,95.542 171.81,122.56C171.783,149.567 149.567,171.783 122.56,171.81Z" style="fill:rgb(232,77,15);fill-rule:nonzero;stroke:rgb(232,77,15);stroke-width:1px;"/>
        </g>
    </g>
</svg>
