<svg xmlns="http://www.w3.org/2000/svg" fill="#E84D0F" width="80px" height="80px" viewBox="0 0 248.71 248.71"><title>list-icon</title><g id="Layer_2" data-name="Layer 2"><g id="Layer_1-2" data-name="Layer 1"><path d="M237.27,101.24h-10.6a103.64,103.64,0,0,0-13.62-32.89l7.5-7.49a11.46,11.46,0,0,0,0-16.18L204,28.16a11.44,11.44,0,0,0-16.18,0l-7.49,7.5A103.64,103.64,0,0,0,147.47,22V11.44A11.45,11.45,0,0,0,136,0H112.67a11.45,11.45,0,0,0-11.43,11.44V22A103.64,103.64,0,0,0,68.35,35.66l-7.49-7.5a11.44,11.44,0,0,0-16.18,0L28.16,44.68a11.46,11.46,0,0,0,0,16.18l7.5,7.49A103.64,103.64,0,0,0,22,101.24H11.44A11.45,11.45,0,0,0,0,112.67V136a11.46,11.46,0,0,0,11.44,11.44H22a103.69,103.69,0,0,0,13.62,32.88l-7.5,7.49a11.44,11.44,0,0,0,0,16.18l16.52,16.52a11.44,11.44,0,0,0,16.18,0l7.49-7.5a103.64,103.64,0,0,0,32.89,13.62v10.6a11.45,11.45,0,0,0,11.44,11.44H136a11.45,11.45,0,0,0,11.43-11.44v-10.6a103.64,103.64,0,0,0,32.89-13.62l7.49,7.5a11.44,11.44,0,0,0,16.18,0L220.55,204a11.44,11.44,0,0,0,0-16.18l-7.5-7.49a103.59,103.59,0,0,0,13.62-32.88h10.6A11.46,11.46,0,0,0,248.71,136V112.68a11.45,11.45,0,0,0-11.44-11.44m4.14,34.8a4.13,4.13,0,0,1-4.14,4.13H223.7a3.65,3.65,0,0,0-3.58,3,96.52,96.52,0,0,1-14.77,35.67,3.64,3.64,0,0,0,.45,4.62l9.59,9.6a4.14,4.14,0,0,1,0,5.85l-16.52,16.52a4.14,4.14,0,0,1-5.85,0l-9.6-9.6a3.65,3.65,0,0,0-4.62-.44,96.52,96.52,0,0,1-35.67,14.77,3.64,3.64,0,0,0-3,3.58v13.57a4.13,4.13,0,0,1-4.13,4.14H112.67a4.13,4.13,0,0,1-4.13-4.14V223.7a3.65,3.65,0,0,0-3-3.58,96.5,96.5,0,0,1-35.68-14.77,3.65,3.65,0,0,0-4.62.45l-9.59,9.59a4.14,4.14,0,0,1-5.85,0L33.33,198.87a4.12,4.12,0,0,1,0-5.85l9.59-9.6a3.65,3.65,0,0,0,.44-4.62,96.52,96.52,0,0,1-14.77-35.67,3.64,3.64,0,0,0-3.58-3H11.44A4.14,4.14,0,0,1,7.3,136V112.68a4.14,4.14,0,0,1,4.14-4.14H25a3.64,3.64,0,0,0,3.58-3A96.5,96.5,0,0,1,43.36,69.91a3.65,3.65,0,0,0-.44-4.62L33.33,55.7a4.13,4.13,0,0,1,0-5.85L49.85,33.33a4.12,4.12,0,0,1,5.85,0l9.59,9.59a3.65,3.65,0,0,0,4.62.44,96.5,96.5,0,0,1,35.68-14.77,3.64,3.64,0,0,0,3-3.58V11.44a4.14,4.14,0,0,1,4.13-4.14H136a4.14,4.14,0,0,1,4.13,4.14V25a3.64,3.64,0,0,0,3,3.58A96.52,96.52,0,0,1,178.8,43.36a3.66,3.66,0,0,0,4.63-.44L193,33.33a4.12,4.12,0,0,1,5.85,0l16.52,16.52a4.15,4.15,0,0,1,0,5.85l-9.59,9.59a3.64,3.64,0,0,0-.45,4.62,96.5,96.5,0,0,1,14.77,35.68,3.65,3.65,0,0,0,3.58,3h13.57a4.13,4.13,0,0,1,4.14,4.13Z"/><path d="M57.92,124.36A66.48,66.48,0,0,1,150.2,63.13a3.65,3.65,0,1,0,2.85-6.72A73.75,73.75,0,0,0,67,170.73a3.65,3.65,0,1,0,5.68-4.6,66.55,66.55,0,0,1-14.78-41.77"/><path d="M187.53,93.75a3.64,3.64,0,0,0-1.94,4.78,66.45,66.45,0,0,1-103,77.5A3.65,3.65,0,0,0,78,181.7a73.76,73.76,0,0,0,114.31-86,3.64,3.64,0,0,0-4.78-1.94"/><path d="M166.11,72.68A66.59,66.59,0,0,1,176,82.61a3.65,3.65,0,0,0,5.68-4.6,74.48,74.48,0,0,0-11-11,3.65,3.65,0,0,0-4.59,5.68"/><path d="M124.36,66.19a58.17,58.17,0,1,0,58.16,58.17,58.24,58.24,0,0,0-58.16-58.17m0,109a50.87,50.87,0,1,1,50.86-50.86,50.93,50.93,0,0,1-50.86,50.86"/></g></g></svg>