<?xml version="1.0" encoding="UTF-8" standalone="no"?>
<!DOCTYPE svg PUBLIC "-//W3C//DTD SVG 1.1//EN" "http://www.w3.org/Graphics/SVG/1.1/DTD/svg11.dtd">
<svg width="125.75" height="55.25" viewBox="0 0 503 221" version="1.1" xmlns="http://www.w3.org/2000/svg" xmlns:xlink="http://www.w3.org/1999/xlink" xml:space="preserve" xmlns:serif="http://www.serif.com/" style="fill-rule:evenodd;clip-rule:evenodd;stroke-miterlimit:10;">
    <g transform="matrix(1,0,0,1,-501.158,-639.975)">
        <g>
            <g transform="matrix(0.996455,-0.0841319,-0.0841319,-0.996455,861.423,745.577)">
                <path d="M4.271,2.548L101.843,2.548L30.059,-107.012L-37.116,-101.341L4.271,2.548Z" style="fill:rgb(232,77,15);fill-rule:nonzero;"/>
            </g>
            <g transform="matrix(1,0,0,1,950.183,794.974)">
                <path d="M0,-9.406L-67.308,46.312L-79.489,46.37L-79.923,-43.729L35.404,-55.776L6.097,-20.238L-0.052,-20.209L0,-9.406Z" style="fill:rgb(232,77,15);fill-rule:nonzero;"/>
            </g>
            <g transform="matrix(1,0,0,1,870.26,841.393)">
                <path d="M0,-90.147L-9.83,-78.952L-9.45,0L0.434,-0.047" style="fill:none;fill-rule:nonzero;stroke:white;stroke-width:3.59px;"/>
            </g>
            <g transform="matrix(1,4.39577e-05,4.39577e-05,-1,519.192,762.282)">
                <path d="M-0,-0.008L341.237,-0.008" style="fill:none;fill-rule:nonzero;stroke:white;stroke-width:3.59px;"/>
            </g>
            <g transform="matrix(0.999988,-0.00481051,-0.00481051,-0.999988,549.417,843.641)">
                <path d="M-0.002,0.749L311.4,0.749" style="fill:none;fill-rule:nonzero;stroke:white;stroke-width:3.59px;"/>
            </g>
            <g transform="matrix(1,0,0,1,950.183,794.975)">
                <path d="M0,-9.406L-67.308,46.312L-79.489,46.37L-79.923,-43.729L35.404,-55.776L6.097,-20.238L-0.052,-20.209L0,-9.406Z" style="fill:none;fill-rule:nonzero;stroke:white;stroke-width:3.59px;"/>
            </g>
            <g transform="matrix(-0.994588,0.103894,0.103894,0.994588,926.105,777.864)">
                <path d="M-63.177,-32.276L-14.657,-32.276L0.226,-17.225L-9.82,-2.135L-24.218,-0.585" style="fill:none;fill-rule:nonzero;stroke:white;stroke-width:3.59px;"/>
            </g>
            <g transform="matrix(-0.668599,0.743623,0.743623,0.668599,878.866,839.109)">
                <path d="M-85.846,-0.823L-40.367,-0.823C10.752,-28.92 -44.856,-32.296 -44.856,-32.296L-88.502,-18.757L-85.846,-0.823Z" style="fill:none;fill-rule:nonzero;stroke:white;stroke-width:3.59px;"/>
            </g>
            <g transform="matrix(1,0,0,1,870.26,841.392)">
                <path d="M0,-90.147L-9.83,-78.952L-9.45,0L0.434,-0.047" style="fill:white;fill-rule:nonzero;stroke:white;stroke-width:3.6px;"/>
            </g>
            <g transform="matrix(1,4.56176e-05,4.56176e-05,-1,619.295,762.287)">
                <path d="M-0,-0.006L241.135,-0.006" style="fill:none;fill-rule:nonzero;stroke:white;stroke-width:3.6px;"/>
            </g>
            <g transform="matrix(0.999988,-0.00481097,-0.00481097,-0.999988,663.142,842.819)">
                <path d="M-0.001,0.475L197.672,0.476" style="fill:none;fill-rule:nonzero;stroke:white;stroke-width:3.6px;"/>
            </g>
            <g transform="matrix(0.999989,-0.00479149,-0.00479149,-0.999989,951.745,766.714)">
                <ellipse cx="-0.044" cy="9.078" rx="9.08" ry="9.08" style="fill:none;stroke:white;stroke-width:1.44px;"/>
            </g>
            <g transform="matrix(0.999988,-0.00484629,-0.00484629,-0.999988,951.702,762.175)">
                <ellipse cx="-0.022" cy="4.539" rx="4.54" ry="4.54" style="fill:none;stroke:white;stroke-width:2.16px;"/>
            </g>
            <g transform="matrix(0.999988,-0.00484656,-0.00484656,-0.999988,889.873,808.771)">
                <ellipse cx="-0.044" cy="9.079" rx="9.08" ry="9.079" style="fill:none;stroke:white;stroke-width:2.16px;"/>
            </g>
            <g transform="matrix(0.999989,-0.00473615,-0.00473615,-0.999989,889.828,804.232)">
                <ellipse cx="-0.021" cy="4.54" rx="4.54" ry="4.54" style="fill:none;stroke:white;stroke-width:2.16px;"/>
            </g>
            <g transform="matrix(-0.994588,0.103894,0.103894,0.994588,926.105,777.863)">
                <path d="M-63.177,-32.276L-14.657,-32.276L0.226,-17.225L-9.82,-2.136L-24.218,-0.585" style="fill:none;fill-rule:nonzero;stroke:white;stroke-width:3.6px;"/>
            </g>
            <g transform="matrix(-0.668588,0.743633,0.743633,0.668588,878.867,839.109)">
                <path d="M-85.846,-0.824L-40.367,-0.824C10.752,-28.922 -44.856,-32.297 -44.856,-32.297L-88.502,-18.757L-85.846,-0.824Z" style="fill:none;fill-rule:nonzero;stroke:white;stroke-width:3.6px;"/>
            </g>
            <g transform="matrix(1,0,0,1,630.406,788.682)">
                <path d="M0,26.551L0,0L10.642,0L10.642,2.845L3.09,2.845L3.09,12.679L9.658,12.679L9.658,15.524L3.09,15.524L3.09,26.551L0,26.551Z" style="fill-rule:nonzero;"/>
            </g>
            <g transform="matrix(1,0,0,1,651.198,811.231)">
                <path d="M0,-24.375L-3.478,-24.375L-1.476,-28.378L2.036,-28.378L0,-24.375ZM-5.936,4.003L-5.936,-22.548L4.706,-22.548L4.706,-19.668L-2.846,-19.668L-2.846,-9.975L3.722,-9.975L3.722,-7.13L-2.846,-7.13L-2.846,1.158L4.67,1.158L4.67,4.003L-5.936,4.003Z" style="fill-rule:nonzero;"/>
            </g>
            <g transform="matrix(1,0,0,1,674.342,815.234)">
                <path d="M0,-26.516L0,0L-3.125,0L-3.125,-18.543C-3.523,-17.514 -3.938,-16.495 -4.372,-15.489C-4.806,-14.482 -5.232,-13.451 -5.654,-12.398L-8.323,-12.398C-8.768,-13.451 -9.201,-14.482 -9.622,-15.489C-10.044,-16.495 -10.478,-17.514 -10.923,-18.543L-10.923,0L-14.013,0L-14.013,-26.516L-11.133,-26.516C-10.454,-24.878 -9.77,-23.238 -9.078,-21.6C-8.388,-19.959 -7.69,-18.322 -6.988,-16.683C-6.31,-18.322 -5.625,-19.959 -4.934,-21.6C-4.243,-23.238 -3.547,-24.878 -2.845,-26.516L0,-26.516Z" style="fill-rule:nonzero;"/>
            </g>
            <g transform="matrix(1,0,0,1,690.251,815.234)">
                <path d="M0,-26.551L0,-23.671L-4.424,-23.671L-4.424,0L-7.479,0L-7.479,-23.671L-11.905,-23.671L-11.905,-26.551L0,-26.551Z" style="fill-rule:nonzero;"/>
            </g>
            <g transform="matrix(1,0,0,1,694.361,788.682)">
                <path d="M0,26.551L0,0L10.641,0L10.641,2.88L3.09,2.88L3.09,12.573L9.657,12.573L9.657,15.418L3.09,15.418L3.09,23.706L10.605,23.706L10.605,26.551L0,26.551Z" style="fill-rule:nonzero;"/>
            </g>
            <g transform="matrix(1,0,0,1,721.65,809.193)">
                <path d="M0,-14.469L-3.021,-14.469L-3.021,-16.473C-3.068,-16.799 -3.214,-17.079 -3.46,-17.314C-3.705,-17.548 -3.993,-17.665 -4.321,-17.665L-7.798,-17.665C-8.173,-17.665 -8.482,-17.535 -8.729,-17.28C-8.975,-17.022 -9.098,-16.704 -9.098,-16.331L-9.098,1.861C-9.098,2.236 -8.975,2.552 -8.729,2.809C-8.482,3.067 -8.173,3.196 -7.798,3.196L-4.321,3.196C-3.993,3.196 -3.705,3.079 -3.46,2.845C-3.214,2.611 -3.068,2.331 -3.021,2.002L-3.021,0.001L0,0.001L0,1.897C-0.024,2.458 -0.153,2.991 -0.387,3.495C-0.622,4 -0.932,4.437 -1.317,4.812C-1.704,5.185 -2.149,5.484 -2.652,5.708C-3.156,5.93 -3.7,6.041 -4.285,6.041L-7.903,6.041C-8.488,6.041 -9.045,5.93 -9.571,5.708C-10.098,5.484 -10.555,5.181 -10.941,4.795C-11.328,4.409 -11.632,3.951 -11.854,3.425C-12.077,2.898 -12.188,2.341 -12.188,1.756L-12.188,-16.227C-12.188,-16.812 -12.077,-17.366 -11.854,-17.895C-11.632,-18.421 -11.328,-18.877 -10.941,-19.263C-10.555,-19.65 -10.098,-19.954 -9.571,-20.177C-9.045,-20.399 -8.488,-20.51 -7.903,-20.51L-4.285,-20.51C-3.7,-20.51 -3.156,-20.399 -2.652,-20.177C-2.149,-19.954 -1.704,-19.656 -1.317,-19.281C-0.932,-18.906 -0.622,-18.468 -0.387,-17.963C-0.153,-17.461 -0.024,-16.929 0,-16.365L0,-14.469Z" style="fill-rule:nonzero;"/>
            </g>
            <g transform="matrix(1,0,0,1,726.145,815.234)">
                <path d="M0,-26.551L3.09,-26.551L3.09,-13.626L9.131,-13.626L9.131,-26.551L12.187,-26.551L12.187,0L9.131,0L9.131,-10.781L3.09,-10.781L3.09,0L0,0L0,-26.551Z" style="fill-rule:nonzero;"/>
            </g>
            <g transform="matrix(1,0,0,1,746.058,807.015)">
                <path d="M0,-10.115L0,8.218L-3.09,8.218L-3.09,-18.333L0,-18.333L7.06,0.001L7.06,-18.333L10.115,-18.333L10.115,8.218L7.025,8.218L0,-10.115Z" style="fill-rule:nonzero;"/>
            </g>
            <g transform="matrix(1,0,0,1,767.974,815.234)">
                <path d="M0,-26.551L0,-23.706L-2.107,-23.706L-2.107,-2.845L0,-2.845L0,0L-7.271,0L-7.271,-2.845L-5.198,-2.845L-5.198,-23.706L-7.271,-23.706L-7.271,-26.551L0,-26.551Z" style="fill-rule:nonzero;"/>
            </g>
            <g transform="matrix(1,0,0,1,779.124,804.751)">
                <path d="M0,-5.551C0.106,-5.748 0.182,-5.954 0.229,-6.164C0.627,-7.826 1.013,-9.477 1.388,-11.117C1.762,-12.755 2.147,-14.396 2.546,-16.033L5.602,-16.033C5.157,-14.137 4.712,-12.235 4.268,-10.326C3.822,-8.418 3.365,-6.515 2.897,-4.618C2.897,-4.526 2.845,-4.385 2.74,-4.199C2.634,-4.011 2.546,-3.823 2.477,-3.636C2.546,-3.495 2.634,-3.32 2.74,-3.11C2.845,-2.898 2.897,-2.746 2.897,-2.654C3.437,-0.452 3.957,1.736 4.461,3.916C4.964,6.093 5.485,8.281 6.023,10.482L2.968,10.482C2.523,8.586 2.084,6.714 1.65,4.864C1.218,3.013 0.767,1.139 0.299,-0.757C0.158,-1.318 -0.052,-1.798 -0.334,-2.196L-3.635,-2.196L-3.635,10.482L-6.726,10.482L-6.726,-16.033L-3.635,-16.033L-3.635,-5.076L-0.334,-5.076C-0.217,-5.194 -0.104,-5.351 0,-5.551" style="fill-rule:nonzero;"/>
            </g>
            <g transform="matrix(1,0,0,1,798.282,799.886)">
                <path d="M0,4.178L0,-6.989C0,-7.364 -0.129,-7.68 -0.386,-7.939C-0.645,-8.195 -0.96,-8.324 -1.334,-8.324L-4.706,-8.324C-5.081,-8.324 -5.396,-8.195 -5.654,-7.939C-5.912,-7.68 -6.041,-7.364 -6.041,-6.989L-6.041,4.178L0,4.178ZM-6.041,7.023L-6.041,15.347L-9.131,15.347L-9.131,-6.884C-9.131,-7.423 -9.02,-7.949 -8.798,-8.466C-8.575,-8.98 -8.266,-9.436 -7.867,-9.836C-7.47,-10.233 -7.013,-10.553 -6.497,-10.8C-5.982,-11.046 -5.421,-11.169 -4.812,-11.169L-1.194,-11.169C-0.608,-11.169 -0.052,-11.058 0.475,-10.837C1.001,-10.612 1.458,-10.309 1.845,-9.923C2.23,-9.537 2.534,-9.079 2.758,-8.552C2.979,-8.026 3.091,-7.469 3.091,-6.884L3.091,15.347L0,15.347L0,7.023L-6.041,7.023Z" style="fill-rule:nonzero;"/>
            </g>
            <g transform="matrix(1,0,0,1,585.954,639.975)">
                <path d="M0,109.774L0,0L49.373,0L49.373,19.905L20.706,19.905L20.706,47.734L45.64,47.734L45.64,67.505L20.706,67.505L20.706,90.001L49.239,90.001L49.239,109.774L0,109.774Z" style="fill:white;fill-rule:nonzero;"/>
            </g>
            <g transform="matrix(1,0,0,1,590.44,644.46)">
                <path d="M0,100.803L0,0L40.4,0L40.4,10.934L11.733,10.934L11.733,47.735L36.667,47.735L36.667,58.535L11.733,58.535L11.733,90.002L40.267,90.002L40.267,100.803L0,100.803Z" style="fill:white;fill-rule:nonzero;"/>
            </g>
            <g transform="matrix(1,0,0,1,649.821,639.975)">
                <path d="M0,109.774L0,0L49.373,0L49.373,19.771L20.706,19.771L20.706,48.133L45.64,48.133L45.64,67.906L20.706,67.906L20.706,109.774L0,109.774Z" style="fill:white;fill-rule:nonzero;"/>
            </g>
            <g transform="matrix(1,0,0,1,654.308,644.46)">
                <path d="M0,100.803L0,0L40.4,0L40.4,10.801L11.733,10.801L11.733,48.135L36.667,48.135L36.667,58.935L11.733,58.935L11.733,100.803L0,100.803Z" style="fill:white;fill-rule:nonzero;"/>
            </g>
            <g transform="matrix(1,0,0,1,734.04,729.977)">
                <path d="M0,-70.097C-0.274,-70.097 -0.323,-70.049 -0.428,-69.944C-0.535,-69.836 -0.58,-69.791 -0.58,-69.516L-0.58,-0.581C-0.58,-0.306 -0.537,-0.262 -0.431,-0.157C-0.319,-0.044 -0.275,-0.001 0,-0.001L12.801,-0.001C13.076,-0.001 13.121,-0.045 13.229,-0.154C13.334,-0.258 13.382,-0.307 13.382,-0.581L13.382,-69.516C13.382,-69.791 13.333,-69.84 13.226,-69.948C13.125,-70.048 13.076,-70.097 12.801,-70.097L0,-70.097ZM-0.399,19.772C-3.319,19.772 -6.072,19.222 -8.581,18.136C-11.023,17.083 -13.227,15.613 -15.125,13.77C-17.062,11.891 -18.591,9.645 -19.667,7.095C-20.741,4.557 -21.286,1.838 -21.286,-0.982L-21.286,-69.117C-21.286,-71.935 -20.741,-74.654 -19.665,-77.198C-18.591,-79.744 -17.062,-81.991 -15.123,-83.87C-13.232,-85.706 -11.03,-87.175 -8.58,-88.235C-6.066,-89.32 -3.315,-89.869 -0.399,-89.869L13.335,-89.869C16.147,-89.869 18.865,-89.325 21.411,-88.25C23.942,-87.179 26.172,-85.691 28.04,-83.822C29.907,-81.955 31.396,-79.727 32.466,-77.199C33.543,-74.646 34.088,-71.928 34.088,-69.117L34.088,-0.982C34.088,1.832 33.543,4.549 32.468,7.096C31.396,9.628 29.908,11.857 28.04,13.723C26.166,15.597 23.937,17.088 21.411,18.152C18.87,19.227 16.152,19.772 13.335,19.772L-0.399,19.772Z" style="fill:white;fill-rule:nonzero;"/>
            </g>
            <g transform="matrix(1,0,0,1,728.974,660.46)">
                <path d="M0,68.935C0,70.358 0.487,71.558 1.467,72.535C2.444,73.514 3.644,74.001 5.066,74.001L17.867,74.001C19.288,74.001 20.488,73.514 21.468,72.535C22.444,71.558 22.935,70.358 22.935,68.935L22.935,0C22.935,-1.42 22.444,-2.621 21.468,-3.6C20.488,-4.577 19.288,-5.067 17.867,-5.067L5.066,-5.067C3.644,-5.067 2.444,-4.577 1.467,-3.6C0.487,-2.621 0,-1.42 0,0L0,68.935ZM34.668,68.535C34.668,70.758 34.245,72.869 33.401,74.869C32.556,76.869 31.401,78.602 29.935,80.069C28.468,81.536 26.734,82.692 24.734,83.536C22.734,84.381 20.622,84.802 18.401,84.802L4.667,84.802C2.354,84.802 0.221,84.381 -1.733,83.536C-3.689,82.692 -5.423,81.536 -6.934,80.069C-8.446,78.602 -9.623,76.869 -10.467,74.869C-11.313,72.869 -11.733,70.758 -11.733,68.535L-11.733,0.4C-11.733,-1.821 -11.313,-3.933 -10.467,-5.933C-9.623,-7.933 -8.446,-9.667 -6.934,-11.133C-5.423,-12.6 -3.689,-13.754 -1.733,-14.6C0.221,-15.444 2.354,-15.867 4.667,-15.867L18.401,-15.867C20.622,-15.867 22.734,-15.444 24.734,-14.6C26.734,-13.754 28.468,-12.6 29.935,-11.133C31.401,-9.667 32.556,-7.933 33.401,-5.933C34.245,-3.933 34.668,-1.821 34.668,0.4L34.668,68.535Z" style="fill:white;fill-rule:nonzero;"/>
            </g>
            <g transform="matrix(1,0,0,1,817.641,690.682)">
                <path d="M0,8.36C0.166,8.36 0.231,8.337 0.232,8.337C0.378,8.188 0.447,8.116 0.447,7.779L0.447,-30.221C0.447,-30.557 0.377,-30.631 0.286,-30.726C0.229,-30.778 0.166,-30.802 0,-30.802L-13.515,-30.802L-13.515,8.36L0,8.36ZM4.277,59.067L-7.456,41.617C-9.436,38.672 -11.461,35.682 -13.515,32.674L-13.515,59.067L-34.22,59.067L-34.22,-50.707L0.4,-50.707C3.24,-50.707 5.982,-50.129 8.554,-48.989C11.053,-47.877 13.257,-46.376 15.105,-44.527C16.973,-42.661 18.462,-40.432 19.532,-37.904C20.608,-35.352 21.153,-32.634 21.153,-29.822L21.153,7.247C21.153,10.428 20.5,13.346 19.212,15.92C17.972,18.4 16.286,20.571 14.201,22.373C12.16,24.137 9.798,25.531 7.176,26.514C6.954,26.597 6.73,26.677 6.508,26.755C8.773,30.07 11.01,33.369 13.189,36.609C16.655,41.766 20.189,46.956 23.693,52.033L28.546,59.067L4.277,59.067Z" style="fill:white;fill-rule:nonzero;"/>
            </g>
            <g transform="matrix(1,0,0,1,817.641,686.194)">
                <path d="M0,17.334C1.421,17.334 2.601,16.847 3.533,15.867C4.467,14.89 4.934,13.69 4.934,12.268L4.934,-25.733C4.934,-27.154 4.467,-28.354 3.533,-29.334C2.601,-30.311 1.421,-30.801 0,-30.801L-18,-30.801L-18,17.334L0,17.334ZM-1.066,28.134C2.487,33.291 6,38.447 9.467,43.602C12.934,48.758 16.444,53.914 20.001,59.068L6.667,59.068C3.2,53.914 -0.267,48.758 -3.733,43.602C-7.2,38.447 -10.713,33.291 -14.267,28.134L-18,28.268L-18,59.068L-29.733,59.068L-29.733,-41.734L0.4,-41.734C2.621,-41.734 4.733,-41.288 6.733,-40.4C8.733,-39.511 10.467,-38.334 11.934,-36.867C13.4,-35.4 14.555,-33.667 15.4,-31.667C16.244,-29.667 16.667,-27.555 16.667,-25.334L16.667,11.733C16.667,14.224 16.178,16.446 15.2,18.4C14.222,20.356 12.911,22.047 11.267,23.468C9.621,24.891 7.733,26.001 5.601,26.801C3.467,27.601 1.244,28.047 -1.066,28.134" style="fill:white;fill-rule:nonzero;"/>
            </g>
        </g>
    </g>
</svg>
